<svg width="112" height="24" viewBox="0 0 112 24" fill="none" xmlns="http://www.w3.org/2000/svg">
<path fill-rule="evenodd" clip-rule="evenodd" d="M106.875 10.6027H100.148C100.148 11.3023 100.148 12.7015 100.144 13.4011H104.042C103.892 14.1007 103.363 15.0802 102.614 15.5734C102.614 15.5727 102.613 15.5776 102.612 15.5769C101.617 16.2338 100.304 16.3829 99.3288 16.187C97.8007 15.8833 96.5913 14.7752 96.1003 13.3675C96.1032 13.3654 96.1053 13.3459 96.1075 13.3445C95.8001 12.4714 95.8001 11.3023 96.1075 10.6027H96.1067C96.5027 9.31683 97.7485 8.14359 99.2788 7.82247C100.51 7.56152 101.898 7.84416 102.92 8.79982C103.055 8.6669 104.799 6.96405 104.93 6.82553C101.441 3.66541 95.8537 4.77708 93.7631 8.85789H93.7624C93.7624 8.85789 93.7631 8.85789 93.7588 8.86558C92.7246 10.87 92.7675 13.2318 93.766 15.1404C93.7631 15.1425 93.761 15.1438 93.7588 15.1459C94.6637 16.902 96.3105 18.2487 98.2946 18.7615C100.402 19.3142 103.085 18.9364 104.882 17.3112C104.882 17.3119 104.883 17.3126 104.884 17.3133C106.406 15.9421 107.354 13.6061 106.875 10.6027Z" fill="white"/>
<path fill-rule="evenodd" clip-rule="evenodd" d="M64 19H60.9231V13.3967C60.9231 11.8596 60.2715 11.0022 59.1031 11.0022C57.8315 11.0022 57.0769 11.8956 57.0769 13.3967V19H54V8.59243H57.0769V9.76288C57.0769 9.76288 58.0423 8 60.2177 8C62.3938 8 64 9.3818 64 12.2415C64 15.1004 64 19 64 19ZM49.5003 6C48.6715 6 48 5.32819 48 4.4997C48 3.67181 48.6715 3 49.5003 3C50.3285 3 51 3.67181 51 4.4997C51.0006 5.32819 50.3285 6 49.5003 6ZM48 19H51V9H48V19Z" fill="white"/>
<path fill-rule="evenodd" clip-rule="evenodd" d="M9.032 19C15.0696 19 18.372 13.6132 18.372 8.94228C18.372 8.78894 18.372 8.63646 18.3624 8.48484C19.0048 7.98518 19.5592 7.36492 20 6.65506C19.4016 6.94107 18.7656 7.12887 18.1152 7.21158C18.8 6.76964 19.3128 6.07529 19.5584 5.25603C18.9136 5.66781 18.2088 5.95813 17.4736 6.11406C16.2304 4.6909 14.1512 4.62198 12.8288 5.96071C11.9768 6.82391 11.6144 8.11096 11.8792 9.33856C9.24 9.19555 6.7808 7.85337 5.1136 5.64541C4.2424 7.26068 4.688 9.3265 6.1304 10.3637C5.608 10.3473 5.0968 10.1957 4.64 9.92178V9.96657C4.6408 11.649 5.7424 13.098 7.2736 13.4314C6.7904 13.5736 6.2832 13.5942 5.792 13.4917C6.2216 14.9321 7.4544 15.9185 8.8584 15.9469C7.696 16.9307 6.26 17.4649 4.7816 17.4631C4.5208 17.4623 4.26 17.4459 4 17.4123C5.5016 18.4495 7.248 19 9.032 18.9974" fill="white"/>
</svg>
